$MeshFormat
2.2 0 8
$EndMeshFormat
$PhysicalNames
4
1 1 "inlet"
1 2 "outlet"
1 3 "wall"
2 4 "surface"
$EndPhysicalNames
$Nodes
473
1 -2 1 0
2 0 1 0
3 0 0 0
4 6 0 0
5 6 2 0
6 -2 2 0
7 -1.799999999999167 1 0
8 -1.6 1 0
9 -1.400000000001387 1 0
10 -1.200000000002774 1 0
11 -1.000000000004117 1 0
12 -0.8000000000033287 1 0
13 -0.6000000000024965 1 0
14 -0.4000000000016644 1 0
15 -0.200000000000832 1 0
16 0 0.7999999999999998 0
17 0 0.6000000000013869 0
18 0 0.4000000000016644 0
19 0 0.2000000000008322 0
20 0.1999999999991098 0 0
21 0.3999999999982407 0 0
22 0.5999999999975234 0 0
23 0.7999999999967187 0 0
24 0.9999999999956506 0 0
25 1.199999999994909 0 0
26 1.399999999994197 0 0
27 1.599999999993484 0 0
28 1.799999999992772 0 0
29 1.999999999992059 0 0
30 2.199999999991346 0 0
31 2.399999999990634 0 0
32 2.599999999989921 0 0
33 2.799999999989208 0 0
34 2.999999999988583 0 0
35 3.199999999989264 0 0
36 3.399999999990031 0 0
37 3.599999999990798 0 0
38 3.799999999991565 0 0
39 3.999999999992331 0 0
40 4.199999999993098 0 0
41 4.399999999993865 0 0
42 4.599999999994631 0 0
43 4.799999999995399 0 0
44 4.999999999996166 0 0
45 5.199999999996932 0 0
46 5.399999999997699 0 0
47 5.599999999998466 0 0
48 5.799999999999233 0 0
49 6 0.1999999999996293 0
50 6 0.3999999999991157 0
51 6 0.5999999999985328 0
52 6 0.7999999999979498 0
53 6 0.9999999999973885 0
54 6 1.199999999997894 0
55 6 1.39999999999842 0
56 6 1.599999999998947 0
57 6 1.799999999999474 0
58 5.799999999999445 2 0
59 5.599999999998889 2 0
60 5.399999999998333 2 0
61 5.199999999997778 2 0
62 4.999999999997396 2 0
63 4.799999999998888 2 0
64 4.600000000000552 2 0
65 4.400000000002217 2 0
66 4.200000000003882 2 0
67 4.00000000000546 2 0
68 3.800000000006102 2 0
69 3.600000000006657 2 0
70 3.400000000007211 2 0
71 3.200000000007766 2 0
72 3.000000000008321 2 0
73 2.800000000008876 2 0
74 2.60000000000943 2 0
75 2.400000000009986 2 0
76 2.200000000010541 2 0
77 2.000000000011009 2 0
78 1.800000000010541 2 0
79 1.600000000009986 2 0
80 1.400000000009431 2 0
81 1.200000000008877 2 0
82 1.000000000008322 2 0
83 0.8000000000077669 2 0
84 0.6000000000072117 2 0
85 0.4000000000066581 2 0
86 0.2000000000061029 2 0
87 5.547562409446982e-12 2 0
88 -0.199999999995006 2 0
89 -0.3999999999955612 2 0
90 -0.5999999999961165 2 0
91 -0.7999999999966718 2 0
92 -0.9999999999972262 2 0
93 -1.199999999997781 2 0
94 -1.399999999998336 2 0
95 -1.59999999999889 2 0
96 -1.799999999999445 2 0
97 -2 1.8 0
98 -2 1.6 0
99 -2 1.4 0
100 -2 1.2 0
101 4.715889888994249 1.820945090216231 0
102 4.126254593927985 1.80991484138901 0
103 2.29999999999099 0.1732050807562706 0
104 2.898220202048412 0.1770020610447061 0
105 1.076568448514803 0.1869321149206973 0
106 1.725488707240545 0.1980115266239818 0
107 3.482343623972824 1.809397822998246 0
108 2.49815492179354 1.851001200578305 0
109 1.905982299339834 1.864155400698314 0
110 1.296315300350435 1.837012656419556 0
111 3.899455533390836 0.1692275483986728 0
112 4.501353593709718 0.2020259114662162 0
113 5.099999999996546 0.1732050807575517 0
114 5.826794919243029 1.099999999997815 0
115 0.1732050807562872 0.8999999999999999 0
116 0.6965691307747465 1.82072802706088 0
117 5.303637951712282 1.820333885191719 0
118 0.1732050807567705 1.099999999999797 0
119 0.3464101615134161 0.9999999999994565 0
120 3.299999999989882 0.1732050807574185 0
121 5.825826487855652 0.6975213828789675 0
122 2.891905155833481 1.815944470027591 0
123 0.6981596001939732 0.1777086041428091 0
124 -1.489686081938773 1.163549923920361 0
125 -1.100000000003446 1.173205080755705 0
126 -0.2999835968974923 1.825730211136559 0
127 -0.6999999999962899 1.826794919242821 0
128 0.3219644455985776 1.809667120872487 0
129 0.3464101615128699 0.7999999999994878 0
130 0.5196152422700365 0.8999999999989881 0
131 0.5196152422705889 1.099999999998985 0
132 0.6928203230272075 0.9999999999984999 0
133 -1.299999999997694 1.826794919242693 0
134 -0.5043371746586531 1.16071004212909 0
135 5.836293387951234 1.488665085739994 0
136 5.513068339144769 0.1981959154845498 0
137 0.6928203230277769 1.199999999998502 0
138 0.8660254037843816 1.099999999998013 0
139 0.8660254037838151 0.8999999999980097 0
140 1.039230484540986 0.9999999999975215 0
141 1.039230484541552 1.199999999997523 0
142 1.212435565298157 1.099999999997034 0
143 1.212435565297593 0.8999999999970348 0
144 1.388163382683139 1.004369508010981 0
145 1.386061102160056 1.200728251332285 0
146 1.559336258934117 1.100849626554419 0
147 1.561870674898172 0.9052393637726254 0
148 1.732636720936703 1.001014831718056 0
149 1.732652617810468 0.8010423659120773 0
150 1.905453842260253 0.9003428662682451 0
151 1.905386532876253 1.100226282994355 0
152 2.078515735496588 1.000094858206663 0
153 2.078491870910347 1.200053523529815 0
154 2.251680327879773 1.100024730285317 0
155 2.251677557248011 0.9000199314113152 0
156 2.424875428170985 1.000007443611683 0
157 2.42487376475952 0.8000045624994914 0
158 2.598077366642508 0.9000020010137799 0
159 2.598077120164044 1.100001574099576 0
160 2.771281636126631 1.000000595847151 0
161 1.905389182354179 0.7002308720266913 0
162 2.77128150091502 1.200000361652794 0
163 2.944486465003926 1.100000159577923 0
164 2.944486445558745 0.9000001258988586 0
165 3.117691481095167 1.000000047573735 0
166 3.11769147355894 1.20000003451963 0
167 3.290896542281853 1.100000013676174 0
168 3.290896540275674 0.9000000102023461 0
169 3.464101617436827 1.000000003973375 0
170 3.458948662971378 0.8089251796816016 0
171 3.636447870916344 0.9014875306024608 0
172 3.637163558781539 1.100247922422684 0
173 3.810344782969403 1.000289242163832 0
174 3.810460088185946 1.20008952742414 0
175 3.98368041038376 1.100063128257312 0
176 3.9836829506234 0.9000587283962558 0
177 4.156921938164967 0.9999999999887335 0
178 4.156916287033673 0.8000097880565726 0
179 4.330126077066453 0.9000016313328891 0
180 4.330126861946278 1.100000271879021 0
181 4.503331916540244 1.000000317193668 0
182 4.503331912179247 0.8000003247461893 0
183 4.67653718043535 0.8999999999872841 0
184 4.676537149912823 1.100000052854934 0
185 4.849742256105335 1.000000008798077 0
186 4.849742255258027 1.200000010266623 0
187 5.022947341471486 1.100000000814582 0
188 5.022947341021563 0.9000000015929113 0
189 4.676537149184971 0.7000000541136884 0
190 1.548944206232109 0.7234994822369983 0
191 5.188039063141041 1.000000000391674 0
192 5.194800195956938 0.8000000003212473 0
193 5.186686836701978 1.200000000191548 0
194 1.558885249764171 1.300068455756421 0
195 2.598076842927763 0.7000010939142114 0
196 3.617104269811613 0.6837066347770926 0
197 0.004465819873861432 1.207735026918892 0
198 2.251673579818007 1.300013042298507 0
199 0.5196152422711537 1.299999999998988 0
200 4.676537174360107 1.300000010511861 0
201 3.29089653902067 1.300000008026661 0
202 3.286402000738564 0.7119429741441921 0
203 0.5196152422694704 0.6999999999989922 0
204 3.983702168160518 1.300025442606306 0
205 4.849742259191726 1.400000003454201 0
206 -1.836293387951482 1.488665085741304 0
207 3.810500713699945 1.400019161664957 0
208 5.372590891217914 0.9210870397500105 0
209 5.369671030296724 0.7035145066687083 0
210 3.117691457720441 1.400000007085566 0
211 2.078467374384346 1.400011094301195 0
212 4.503332063219504 0.6000000631352367 0
213 4.673233096278839 0.5057228416170048 0
214 2.424871674884895 0.6000009427314389 0
215 0.6928203230283385 1.399999999998502 0
216 2.598076262366138 0.5000000883529586 0
217 5.195979306052785 0.6005857511556347 0
218 1.385717309231959 1.400132784512563 0
219 1.558865091167685 1.50003354004212 0
220 0.1687392608823997 0.307735026920587 0
221 0.1739493840693875 1.301289171152911 0
222 0.006604759422929646 1.4002133391062 0
223 3.983710264421383 0.7000114194016973 0
224 4.156919897477751 0.6000035345687855 0
225 2.598076397623053 1.30000032262089 0
226 2.771281405873768 0.6000001970394528 0
227 2.771281309251153 1.400000029680259 0
228 2.251666654418516 1.500001047153748 0
229 0.5196152422717312 1.49999999999899 0
230 3.290896534760902 1.500000000647548 0
231 5.829907236381057 0.3192180115220712 0
232 -0.1810563553985545 1.312673029721057 0
233 5.699152526142959 1.830645590988407 0
234 -1.699152526142983 1.830645590988467 0
235 5.371887606885953 0.5050251110450485 0
236 0.1768500303165584 1.496058672223337 0
237 0.004627693960895851 1.623460803044036 0
238 3.985881955872225 1.496249939477035 0
239 4.15728033970181 1.399379230339546 0
240 3.80740425487539 1.628539324165006 0
241 4.849191575290535 0.6009538159461567 0
242 1.732060622120716 1.400016999296639 0
243 3.464101615974917 1.400000001439321 0
244 0.346410161512376 0.5999999999997115 0
245 0.51961524226905 0.4999999999992684 0
246 0.6928203230260978 0.5999999999985435 0
247 4.673233106221126 1.494277180237408 0
248 4.502781419631145 1.399046198450212 0
249 4.4988302178202 1.597630227567447 0
250 2.598396876698366 1.496448710809146 0
251 4.830149691825156 0.3730921704639418 0
252 3.983716857406679 0.4999999999892177 0
253 4.17384675532625 0.3717704213845126 0
254 3.120686757099165 1.594811984774291 0
255 4.832908144439959 1.630585413706644 0
256 5.020141655491436 1.505097569517528 0
257 5.012752367952463 1.682102818243168 0
258 5.534923163264589 0.6014232696087509 0
259 2.085357086957448 1.598534757365323 0
260 2.25829019712397 1.687746082124299 0
261 1.731003674176607 1.598901204373453 0
262 1.549628633468017 1.688497413455346 0
263 5.198691634203925 1.628840110285881 0
264 2.781218271986689 1.626678849037754 0
265 2.789740053531362 0.3665442331342964 0
266 2.951965145491068 0.5071607391810755 0
267 2.601088089271256 0.3130596481368549 0
268 3.295953330767563 1.695123058875572 0
269 5.197739293537637 0.3717561248405304 0
270 4.156921938166652 1.599999999988729 0
271 5.532395030868232 0.4085446626195848 0
272 5.708580577717816 0.5048245507830141 0
273 4.502364804740366 0.4125866724945864 0
274 0.6934451243197839 1.603454671175565 0
275 0.8661295373339907 1.500575778527523 0
276 0.5172046889956422 1.699992421214843 0
277 0.6942940546944972 0.3949652625575458 0
278 0.8646278532758763 0.497667928336997 0
279 0.5196152422683276 0.2999999999989925 0
280 3.110143347565837 1.805897137066593 0
281 0.8791012364196535 0.2977909622138311 0
282 1.046543270869362 0.4066990725784249 0
283 1.237137711463851 0.3352183737150695 0
284 1.200173951640256 0.5277586787804298 0
285 1.384888354527269 0.4570447909359722 0
286 1.405237467599955 0.3004054321434585 0
287 1.580447146553319 0.3791446391038401 0
288 1.37221104299095 0.6303266725864406 0
289 0.8660254037860764 1.699999999998013 0
290 1.037175245918001 1.596506124600052 0
291 1.060946716250862 1.807557473227634 0
292 5.299999999997024 0.1732050807573886 0
293 0.3464101615151304 1.59999999999948 0
294 -0.4999808630483291 1.826607997558866 0
295 -0.5999804074068338 1.65354921453885 0
296 -0.7999967345646268 1.65358306782786 0
297 -0.7026574683113098 1.481913348189344 0
298 -0.9004423671432424 1.48391331892005 0
299 -0.5039918885103523 1.485905478777195 0
300 -1.000073183615576 1.65417680357446 0
301 -1.1000223670117 1.48226679975507 0
302 -0.8058391952123173 1.321099363762176 0
303 -1.200015925102734 1.654001339671436 0
304 -1.300001661288311 1.4821862652492 0
305 -1.49985875435587 1.827436697867106 0
306 -1.603527600612199 1.670674566586002 0
307 5.499999999998385 1.826794919242762 0
308 5.603551141552696 1.670567603481963 0
309 5.399999999998276 1.653589838485846 0
310 5.509837670829932 1.481629091635636 0
311 -1.400567323558871 1.656913091057229 0
312 -1.515789822106204 1.484589124741159 0
313 5.830914871827806 1.298110847621704 0
314 5.665501031863917 1.201317489887759 0
315 5.656804168447166 1.004395628983714 0
316 5.480384757729246 1.099999999997537 0
317 3.499999999990197 0.1732050807574295 0
318 3.399999999989999 0.3446712196452 0
319 3.595020984584157 0.3432457019849392 0
320 3.19809859783542 0.3294471628575002 0
321 3.502572509313167 0.5061206063945867 0
322 3.699079419656267 0.1720147487760303 0
323 3.807806239947121 0.3727714847803223 0
324 3.099999999989636 0.1732050807579082 0
325 4.287438443686776 0.1800726166462276 0
326 4.094937372947683 0.173727112810578 0
327 4.714702671454938 0.1804433491965457 0
328 4.908969241554524 0.1751603403515806 0
329 0.1000000000058252 1.826794919242632 0
330 -0.09922598381920536 1.820540724211511 0
331 -0.2064110937829766 1.649799302264625 0
332 -0.4025907161289083 1.654144571069703 0
333 -0.9000116530278772 1.826891618314632 0
334 0.1732050807560454 0.7000000000004494 0
335 -1.100016793623148 1.826977446800536 0
336 0.3465342120659792 1.200214861858269 0
337 5.022947341948033 0.4999999999863232 0
338 0.8632776245558037 0.6996113213878521 0
339 0.3471623787516567 1.399593784205329 0
340 4.330125542649516 0.7000025569713202 0
341 2.412933764763291 0.3683969956771279 0
342 2.251666049837786 0.4999999999940998 0
343 3.812162552631986 0.5931428276500698 0
344 3.116942382359428 0.801990526300487 0
345 3.114731248084986 0.613446379672641 0
346 4.330127018920472 0.4999999999882476 0
347 5.523404169412773 0.7876708026657232 0
348 2.25166849748219 0.7000042394375872 0
349 0.6923623598220716 0.7999352202301475 0
350 1.03068584204855 0.7998131326163543 0
351 0.8660427593763594 1.300095963086265 0
352 2.420359064926746 1.583439179256986 0
353 2.944486372868165 1.499999999992146 0
354 1.909719070115393 1.493540023583126 0
355 1.387347341110679 1.584783090323297 0
356 -1.830617856523183 1.300113576604748 0
357 1.732200382276675 1.200259070988611 0
358 1.906054308780622 1.299017832448957 0
359 1.038908192961318 1.399529644367572 0
360 2.771281678332552 0.8000006689509324 0
361 2.42487566404218 1.200007852151597 0
362 2.424174706254478 1.396651692381812 0
363 1.7069451926657 0.5788699886331586 0
364 1.905255888324014 0.4999999999950787 0
365 2.945114717616757 0.7037664395072412 0
366 1.212464703248721 1.300065113367335 0
367 3.807242115229021 0.7964493971652346 0
368 5.022700195492663 0.7001832820186 0
369 1.210268798745662 1.493246287708919 0
370 2.944486429886274 1.300000098751386 0
371 2.078527630653733 0.800115461224182 0
372 5.188384454300706 1.405512631184641 0
373 5.019607467069226 1.301768369238187 0
374 5.369357503464008 1.299999999985368 0
375 4.156973122880004 1.19991134550986 0
376 4.849609282921735 0.8001895270761195 0
377 3.464077761565158 1.2000413249214 0
378 2.078494702955419 0.6000584287787054 0
379 3.637268405683868 1.300066322977115 0
380 3.637306695895707 1.499999999990189 0
381 4.503240256885547 1.199841141812989 0
382 2.07553849000577 0.4050813584976872 0
383 1.906405646275527 0.3043419355987299 0
384 2.085278805223078 0.194534435816369 0
385 4.330088169994672 1.29969636466331 0
386 3.464101615139101 1.599999999990666 0
387 4.329338184039713 1.499292003499575 0
388 4.32422419753062 1.699896762712545 0
389 5.832210535285554 0.909051289042383 0
390 3.700000000006382 1.826794919243588 0
391 2.700000000009153 1.826794919243593 0
392 3.900000000005778 1.826794919244212 0
393 -1.30000000000208 1.173205080755686 0
394 4.499379578224482 1.80704129798149 0
395 0.1724607774438955 0.5012891711541198 0
396 0.3455418076480208 0.4015040330127715 0
397 0.3257580674725927 0.1842319739517271 0
398 2.096542765454291 1.810997910731447 0
399 1.708938321142409 1.822768918122662 0
400 -0.3051964471274664 1.483275222142123 0
401 3.28908283385365 0.515654550574122 0
402 -0.3066178263334563 1.160554648292915 0
403 5.811754837909366 1.683609464896652 0
404 -1.684375567857481 1.1891186510725 0
405 5.69019237886328 0.1675426480548286 0
406 -1.811751474918005 1.68362474534067 0
407 4.907208104747131 1.830352619829741 0
408 1.028839573816394 0.6036687628588496 0
409 -1.684116286406766 1.386340244868585 0
410 5.677459108719409 1.386885790363416 0
411 -0.9009731992036432 1.162448200375055 0
412 -0.6028455809324694 1.321657870539575 0
413 -1.392233613016618 1.32401370156327 0
414 -1.199999999995738 1.326794919244458 0
415 -0.7023325250021514 1.160985912800983 0
416 -0.9999999999957386 1.326829224317669 0
417 -0.4006742121601586 1.320796048600325 0
418 2.999999999988044 0.3260175575665244 0
419 2.712033120063154 0.1646097622315301 0
420 2.492780539661815 0.1660605761080349 0
421 1.287445451722304 0.1570626836232561 0
422 1.762491580749971 0.3943382985636837 0
423 1.217813847779629 1.677603286483487 0
424 2.564509777687912 1.687018363635503 0
425 3.995998173949687 1.67482481437328 0
426 3.994294093967127 0.319970654152817 0
427 5.009743497271311 0.3227692607221974 0
428 0.1899704662793975 1.671196303076394 0
429 5.114471064203338 1.834128597052813 0
430 5.383412242583139 0.3298325302468211 0
431 1.400777065824461 0.8262170480831602 0
432 3.618231237977881 1.672946413277539 0
433 1.207520506936367 0.7146307158203782 0
434 1.500000000009709 1.860895300726176 0
435 3.668497031892817 0.5010562147965769 0
436 2.2340974415139 0.3304297222285669 0
437 2.969687981070667 1.668666488179675 0
438 2.301818574521045 1.858905485932389 0
439 5.332682841707856 1.497778316214054 0
440 4.300000000003051 1.865153937878145 0
441 4.359026123276716 0.3332911243959581 0
442 0.500000000006935 1.866025403784319 0
443 0.5022663947261852 0.1335616222989274 0
444 4.647666631734427 1.668829334957335 0
445 4.647889906346783 0.3346492586031081 0
446 3.298820439016035 1.864260717778096 0
447 1.902453308386973 0.1376638065582401 0
448 -0.1387866474061928 1.492255836565508 0
449 1.920986368890174 1.672723820525664 0
450 0.8999999999961846 0.1305125270622566 0
451 0.8856248965360678 1.864636067908769 0
452 5.538223072832562 1.298488650756656 0
453 1.511131962955855 0.1661347467123421 0
454 5.875475075227786 0.4999999999988243 0
455 5.658678150342996 0.6919758183291449 0
456 5.319411810450838 1.104217408063228 0
457 1.518687188593869 0.5537771146992819 0
458 0.1464101615141686 0.1464101615146301 0
459 -1.853589838486143 1.146410161513634 0
460 -1.853589838485723 1.853589838485872 0
461 5.853589838485812 1.853589838485814 0
462 -0.1464101615138812 1.146410161513663 0
463 5.853589838486437 0.1464101615132628 0
464 5.66437825603305 0.32010994793523 0
465 3.110775565050634 0.4583452779703726 0
466 5.67586250699043 0.845917921811135 0
467 5.523063515482079 0.9418530826340643 0
468 3.433183893948602 0.6535510639423447 0
469 -1.547924112768604 1.313756895468756 0
470 1.410352789291488 1.73849816706357 0
471 5.689696971232865 1.541798135581961 0
472 -1.689696971233646 1.541798135583045 0
473 2.398979008517908 1.735642598100635 0
$EndNodes
$Elements
944
1 1 2 3 1 1 7
2 1 2 3 1 7 8
3 1 2 3 1 8 9
4 1 2 3 1 9 10
5 1 2 3 1 10 11
6 1 2 3 1 11 12
7 1 2 3 1 12 13
8 1 2 3 1 13 14
9 1 2 3 1 14 15
10 1 2 3 1 15 2
11 1 2 3 2 2 16
12 1 2 3 2 16 17
13 1 2 3 2 17 18
14 1 2 3 2 18 19
15 1 2 3 2 19 3
16 1 2 3 3 3 20
17 1 2 3 3 20 21
18 1 2 3 3 21 22
19 1 2 3 3 22 23
20 1 2 3 3 23 24
21 1 2 3 3 24 25
22 1 2 3 3 25 26
23 1 2 3 3 26 27
24 1 2 3 3 27 28
25 1 2 3 3 28 29
26 1 2 3 3 29 30
27 1 2 3 3 30 31
28 1 2 3 3 31 32
29 1 2 3 3 32 33
30 1 2 3 3 33 34
31 1 2 3 3 34 35
32 1 2 3 3 35 36
33 1 2 3 3 36 37
34 1 2 3 3 37 38
35 1 2 3 3 38 39
36 1 2 3 3 39 40
37 1 2 3 3 40 41
38 1 2 3 3 41 42
39 1 2 3 3 42 43
40 1 2 3 3 43 44
41 1 2 3 3 44 45
42 1 2 3 3 45 46
43 1 2 3 3 46 47
44 1 2 3 3 47 48
45 1 2 3 3 48 4
46 1 2 2 4 4 49
47 1 2 2 4 49 50
48 1 2 2 4 50 51
49 1 2 2 4 51 52
50 1 2 2 4 52 53
51 1 2 2 4 53 54
52 1 2 2 4 54 55
53 1 2 2 4 55 56
54 1 2 2 4 56 57
55 1 2 2 4 57 5
56 1 2 3 5 5 58
57 1 2 3 5 58 59
58 1 2 3 5 59 60
59 1 2 3 5 60 61
60 1 2 3 5 61 62
61 1 2 3 5 62 63
62 1 2 3 5 63 64
63 1 2 3 5 64 65
64 1 2 3 5 65 66
65 1 2 3 5 66 67
66 1 2 3 5 67 68
67 1 2 3 5 68 69
68 1 2 3 5 69 70
69 1 2 3 5 70 71
70 1 2 3 5 71 72
71 1 2 3 5 72 73
72 1 2 3 5 73 74
73 1 2 3 5 74 75
74 1 2 3 5 75 76
75 1 2 3 5 76 77
76 1 2 3 5 77 78
77 1 2 3 5 78 79
78 1 2 3 5 79 80
79 1 2 3 5 80 81
80 1 2 3 5 81 82
81 1 2 3 5 82 83
82 1 2 3 5 83 84
83 1 2 3 5 84 85
84 1 2 3 5 85 86
85 1 2 3 5 86 87
86 1 2 3 5 87 88
87 1 2 3 5 88 89
88 1 2 3 5 89 90
89 1 2 3 5 90 91
90 1 2 3 5 91 92
91 1 2 3 5 92 93
92 1 2 3 5 93 94
93 1 2 3 5 94 95
94 1 2 3 5 95 96
95 1 2 3 5 96 6
96 1 2 1 6 6 97
97 1 2 1 6 97 98
98 1 2 1 6 98 99
99 1 2 1 6 99 100
100 1 2 1 6 100 1
101 2 2 4 1 261 449 399
102 2 2 4 1 81 291 110
103 2 2 4 1 399 449 109
104 2 2 4 1 327 328 251
105 2 2 4 1 255 407 101
106 2 2 4 1 253 326 325
107 2 2 4 1 122 391 264
108 2 2 4 1 270 388 102
109 2 2 4 1 101 444 255
110 2 2 4 1 251 445 327
111 2 2 4 1 105 282 281
112 2 2 4 1 287 453 106
113 2 2 4 1 240 392 390
114 2 2 4 1 265 419 104
115 2 2 4 1 113 292 269
116 2 2 4 1 329 330 237
117 2 2 4 1 103 420 341
118 2 2 4 1 104 418 265
119 2 2 4 1 252 343 323
120 2 2 4 1 325 441 253
121 2 2 4 1 117 429 263
122 2 2 4 1 128 293 276
123 2 2 4 1 106 422 287
124 2 2 4 1 388 440 102
125 2 2 4 1 291 423 110
126 2 2 4 1 268 386 107
127 2 2 4 1 82 291 81
128 2 2 4 1 143 433 431
129 2 2 4 1 264 437 122
130 2 2 4 1 281 450 105
131 2 2 4 1 341 436 103
132 2 2 4 1 263 309 117
133 2 2 4 1 330 331 237
134 2 2 4 1 26 453 421
135 2 2 4 1 383 422 106
136 2 2 4 1 21 397 20
137 2 2 4 1 431 433 288
138 2 2 4 1 286 453 287
139 2 2 4 1 343 435 323
140 2 2 4 1 103 384 30
141 2 2 4 1 276 442 128
142 2 2 4 1 390 432 240
143 2 2 4 1 363 457 287
144 2 2 4 1 287 422 363
145 2 2 4 1 421 453 286
146 2 2 4 1 263 429 257
147 2 2 4 1 122 280 72
148 2 2 4 1 105 283 282
149 2 2 4 1 292 430 269
150 2 2 4 1 30 384 29
151 2 2 4 1 72 280 71
152 2 2 4 1 237 428 329
153 2 2 4 1 116 276 274
154 2 2 4 1 277 279 123
155 2 2 4 1 398 449 259
156 2 2 4 1 269 427 113
157 2 2 4 1 419 420 32
158 2 2 4 1 407 429 62
159 2 2 4 1 397 458 20
160 2 2 4 1 341 420 267
161 2 2 4 1 400 417 232
162 2 2 4 1 240 425 392
163 2 2 4 1 267 419 265
164 2 2 4 1 123 281 277
165 2 2 4 1 107 446 268
166 2 2 4 1 249 394 388
167 2 2 4 1 265 418 266
168 2 2 4 1 274 289 116
169 2 2 4 1 257 407 255
170 2 2 4 1 234 406 306
171 2 2 4 1 308 403 233
172 2 2 4 1 106 447 383
173 2 2 4 1 323 426 252
174 2 2 4 1 261 399 262
175 2 2 4 1 136 464 271
176 2 2 4 1 260 398 259
177 2 2 4 1 249 444 394
178 2 2 4 1 112 445 273
179 2 2 4 1 273 441 112
180 2 2 4 1 391 424 264
181 2 2 4 1 109 449 398
182 2 2 4 1 404 409 356
183 2 2 4 1 267 420 419
184 2 2 4 1 257 429 407
185 2 2 4 1 316 452 374
186 2 2 4 1 406 472 306
187 2 2 4 1 308 471 403
188 2 2 4 1 277 281 278
189 2 2 4 1 102 425 270
190 2 2 4 1 253 426 326
191 2 2 4 1 404 469 409
192 2 2 4 1 232 417 402
193 2 2 4 1 283 284 282
194 2 2 4 1 328 427 251
195 2 2 4 1 386 432 107
196 2 2 4 1 128 428 293
197 2 2 4 1 271 430 136
198 2 2 4 1 281 282 278
199 2 2 4 1 121 455 272
200 2 2 4 1 272 454 121
201 2 2 4 1 316 456 208
202 2 2 4 1 374 456 316
203 2 2 4 1 231 454 272
204 2 2 4 1 126 331 330
205 2 2 4 1 321 435 196
206 2 2 4 1 103 436 384
207 2 2 4 1 196 468 321
208 2 2 4 1 126 332 331
209 2 2 4 1 310 439 374
210 2 2 4 1 394 444 101
211 2 2 4 1 327 445 112
212 2 2 4 1 12 415 411
213 2 2 4 1 412 417 299
214 2 2 4 1 283 285 284
215 2 2 4 1 232 448 400
216 2 2 4 1 116 442 276
217 2 2 4 1 279 443 123
218 2 2 4 1 122 437 280
219 2 2 4 1 283 286 285
220 2 2 4 1 285 288 284
221 2 2 4 1 286 287 285
222 2 2 4 1 295 332 294
223 2 2 4 1 294 332 126
224 2 2 4 1 299 332 295
225 2 2 4 1 303 311 304
226 2 2 4 1 133 311 303
227 2 2 4 1 306 312 311
228 2 2 4 1 111 323 322
229 2 2 4 1 111 322 38
230 2 2 4 1 311 312 304
231 2 2 4 1 303 335 133
232 2 2 4 1 35 324 34
233 2 2 4 1 39 326 111
234 2 2 4 1 34 324 104
235 2 2 4 1 133 335 93
236 2 2 4 1 136 292 46
237 2 2 4 1 113 328 44
238 2 2 4 1 38 322 37
239 2 2 4 1 42 327 112
240 2 2 4 1 236 339 293
241 2 2 4 1 36 317 120
242 2 2 4 1 59 307 233
243 2 2 4 1 87 330 329
244 2 2 4 1 89 294 126
245 2 2 4 1 234 305 95
246 2 2 4 1 333 335 300
247 2 2 4 1 307 308 233
248 2 2 4 1 317 318 120
249 2 2 4 1 234 306 305
250 2 2 4 1 221 339 236
251 2 2 4 1 19 220 18
252 2 2 4 1 86 329 128
253 2 2 4 1 313 314 114
254 2 2 4 1 300 335 303
255 2 2 4 1 325 326 40
256 2 2 4 1 45 292 113
257 2 2 4 1 112 325 41
258 2 2 4 1 43 328 327
259 2 2 4 1 54 313 114
260 2 2 4 1 127 333 296
261 2 2 4 1 14 134 13
262 2 2 4 1 37 322 317
263 2 2 4 1 296 333 300
264 2 2 4 1 36 120 35
265 2 2 4 1 54 114 53
266 2 2 4 1 40 326 39
267 2 2 4 1 39 111 38
268 2 2 4 1 42 112 41
269 2 2 4 1 47 136 46
270 2 2 4 1 37 317 36
271 2 2 4 1 45 113 44
272 2 2 4 1 43 327 42
273 2 2 4 1 120 324 35
274 2 2 4 1 305 311 133
275 2 2 4 1 78 109 77
276 2 2 4 1 126 330 88
277 2 2 4 1 127 294 90
278 2 2 4 1 94 305 133
279 2 2 4 1 336 339 221
280 2 2 4 1 135 313 55
281 2 2 4 1 307 309 308
282 2 2 4 1 61 117 60
283 2 2 4 1 117 307 60
284 2 2 4 1 309 310 308
285 2 2 4 1 84 116 83
286 2 2 4 1 86 128 85
287 2 2 4 1 87 329 86
288 2 2 4 1 89 126 88
289 2 2 4 1 94 133 93
290 2 2 4 1 91 127 90
291 2 2 4 1 59 233 58
292 2 2 4 1 81 110 80
293 2 2 4 1 96 234 95
294 2 2 4 1 56 135 55
295 2 2 4 1 93 335 92
296 2 2 4 1 127 295 294
297 2 2 4 1 91 333 127
298 2 2 4 1 117 309 307
299 2 2 4 1 46 292 45
300 2 2 4 1 41 325 40
301 2 2 4 1 44 328 43
302 2 2 4 1 92 335 333
303 2 2 4 1 55 313 54
304 2 2 4 1 95 305 94
305 2 2 4 1 88 330 87
306 2 2 4 1 16 115 2
307 2 2 4 1 90 294 89
308 2 2 4 1 60 307 59
309 2 2 4 1 317 319 318
310 2 2 4 1 318 320 120
311 2 2 4 1 306 311 305
312 2 2 4 1 53 389 52
313 2 2 4 1 314 315 114
314 2 2 4 1 92 333 91
315 2 2 4 1 118 336 221
316 2 2 4 1 199 336 131
317 2 2 4 1 127 296 295
318 2 2 4 1 199 339 336
319 2 2 4 1 319 321 318
320 2 2 4 1 317 322 319
321 2 2 4 1 114 389 53
322 2 2 4 1 320 324 120
323 2 2 4 1 314 316 315
324 2 2 4 1 131 336 119
325 2 2 4 1 251 337 241
326 2 2 4 1 253 346 224
327 2 2 4 1 296 297 295
328 2 2 4 1 192 368 217
329 2 2 4 1 140 350 143
330 2 2 4 1 129 334 244
331 2 2 4 1 322 323 319
332 2 2 4 1 338 350 139
333 2 2 4 1 188 368 192
334 2 2 4 1 139 349 338
335 2 2 4 1 224 346 340
336 2 2 4 1 345 365 266
337 2 2 4 1 139 350 140
338 2 2 4 1 293 339 229
339 2 2 4 1 229 339 199
340 2 2 4 1 344 365 345
341 2 2 4 1 178 340 179
342 2 2 4 1 223 367 343
343 2 2 4 1 168 344 202
344 2 2 4 1 343 367 196
345 2 2 4 1 179 340 182
346 2 2 4 1 224 340 178
347 2 2 4 1 132 349 139
348 2 2 4 1 166 370 163
349 2 2 4 1 296 298 297
350 2 2 4 1 344 345 202
351 2 2 4 1 337 368 241
352 2 2 4 1 297 299 295
353 2 2 4 1 188 192 191
354 2 2 4 1 217 368 337
355 2 2 4 1 176 367 223
356 2 2 4 1 226 360 195
357 2 2 4 1 354 358 211
358 2 2 4 1 165 344 168
359 2 2 4 1 195 360 158
360 2 2 4 1 130 349 132
361 2 2 4 1 223 224 178
362 2 2 4 1 200 381 184
363 2 2 4 1 210 370 166
364 2 2 4 1 185 376 188
365 2 2 4 1 209 347 208
366 2 2 4 1 216 341 267
367 2 2 4 1 157 348 214
368 2 2 4 1 271 272 258
369 2 2 4 1 155 348 157
370 2 2 4 1 242 358 354
371 2 2 4 1 223 343 252
372 2 2 4 1 254 353 210
373 2 2 4 1 212 273 213
374 2 2 4 1 211 358 153
375 2 2 4 1 154 361 198
376 2 2 4 1 298 302 297
377 2 2 4 1 163 370 162
378 2 2 4 1 296 300 298
379 2 2 4 1 353 370 210
380 2 2 4 1 168 202 170
381 2 2 4 1 185 187 186
382 2 2 4 1 247 248 200
383 2 2 4 1 141 351 138
384 2 2 4 1 153 358 151
385 2 2 4 1 162 225 159
386 2 2 4 1 160 164 163
387 2 2 4 1 165 168 167
388 2 2 4 1 170 196 171
389 2 2 4 1 173 176 175
390 2 2 4 1 175 375 204
391 2 2 4 1 176 178 177
392 2 2 4 1 179 182 181
393 2 2 4 1 184 381 181
394 2 2 4 1 185 188 187
395 2 2 4 1 186 205 200
396 2 2 4 1 193 373 187
397 2 2 4 1 192 209 208
398 2 2 4 1 201 377 243
399 2 2 4 1 238 240 207
400 2 2 4 1 230 254 210
401 2 2 4 1 228 259 211
402 2 2 4 1 213 251 241
403 2 2 4 1 214 348 342
404 2 2 4 1 218 369 366
405 2 2 4 1 227 250 225
406 2 2 4 1 228 362 352
407 2 2 4 1 235 271 258
408 2 2 4 1 338 349 246
409 2 2 4 1 198 362 228
410 2 2 4 1 259 354 211
411 2 2 4 1 227 353 264
412 2 2 4 1 138 351 137
413 2 2 4 1 156 361 154
414 2 2 4 1 173 367 176
415 2 2 4 1 147 190 149
416 2 2 4 1 155 371 348
417 2 2 4 1 173 174 172
418 2 2 4 1 189 376 183
419 2 2 4 1 194 219 218
420 2 2 4 1 265 266 226
421 2 2 4 1 132 137 131
422 2 2 4 1 158 160 159
423 2 2 4 1 182 212 189
424 2 2 4 1 256 257 255
425 2 2 4 1 275 359 290
426 2 2 4 1 246 349 203
427 2 2 4 1 351 359 275
428 2 2 4 1 137 215 199
429 2 2 4 1 152 371 155
430 2 2 4 1 182 340 212
431 2 2 4 1 201 230 210
432 2 2 4 1 150 151 148
433 2 2 4 1 150 152 151
434 2 2 4 1 214 341 216
435 2 2 4 1 226 365 360
436 2 2 4 1 366 369 359
437 2 2 4 1 99 206 98
438 2 2 4 1 154 198 153
439 2 2 4 1 173 175 174
440 2 2 4 1 198 228 211
441 2 2 4 1 215 274 229
442 2 2 4 1 216 267 265
443 2 2 4 1 242 261 219
444 2 2 4 1 227 264 250
445 2 2 4 1 137 199 131
446 2 2 4 1 132 139 138
447 2 2 4 1 140 141 138
448 2 2 4 1 140 143 142
449 2 2 4 1 144 147 146
450 2 2 4 1 194 218 145
451 2 2 4 1 151 357 148
452 2 2 4 1 149 161 150
453 2 2 4 1 150 371 152
454 2 2 4 1 162 227 225
455 2 2 4 1 167 377 201
456 2 2 4 1 182 183 181
457 2 2 4 1 215 229 199
458 2 2 4 1 228 352 260
459 2 2 4 1 300 301 298
460 2 2 4 1 303 304 301
461 2 2 4 1 155 156 154
462 2 2 4 1 225 361 159
463 2 2 4 1 175 204 174
464 2 2 4 1 245 279 277
465 2 2 4 1 256 263 257
466 2 2 4 1 141 359 351
467 2 2 4 1 144 146 145
468 2 2 4 1 147 148 146
469 2 2 4 1 152 153 151
470 2 2 4 1 160 162 159
471 2 2 4 1 168 169 167
472 2 2 4 1 192 217 209
473 2 2 4 1 194 242 219
474 2 2 4 1 245 246 203
475 2 2 4 1 204 238 207
476 2 2 4 1 258 347 209
477 2 2 4 1 215 275 274
478 2 2 4 1 223 252 224
479 2 2 4 1 250 362 225
480 2 2 4 1 277 278 246
481 2 2 4 1 132 138 137
482 2 2 4 1 144 145 142
483 2 2 4 1 218 366 145
484 2 2 4 1 171 172 169
485 2 2 4 1 176 177 175
486 2 2 4 1 188 191 187
487 2 2 4 1 213 241 189
488 2 2 4 1 204 239 238
489 2 2 4 1 235 258 209
490 2 2 4 1 300 303 301
491 2 2 4 1 139 140 138
492 2 2 4 1 148 357 146
493 2 2 4 1 186 373 205
494 2 2 4 1 216 226 195
495 2 2 4 1 290 291 289
496 2 2 4 1 100 356 99
497 2 2 4 1 152 154 153
498 2 2 4 1 157 158 156
499 2 2 4 1 170 171 169
500 2 2 4 1 361 362 198
501 2 2 4 1 244 245 203
502 2 2 4 1 215 351 275
503 2 2 4 1 266 365 226
504 2 2 4 1 274 276 229
505 2 2 4 1 245 277 246
506 2 2 4 1 278 338 246
507 2 2 4 1 275 289 274
508 2 2 4 1 137 351 215
509 2 2 4 1 149 150 148
510 2 2 4 1 157 214 195
511 2 2 4 1 171 173 172
512 2 2 4 1 239 270 238
513 2 2 4 1 185 186 184
514 2 2 4 1 236 237 222
515 2 2 4 1 242 354 261
516 2 2 4 1 275 290 289
517 2 2 4 1 129 244 203
518 2 2 4 1 203 349 130
519 2 2 4 1 146 194 145
520 2 2 4 1 160 163 162
521 2 2 4 1 164 365 344
522 2 2 4 1 214 342 341
523 2 2 4 1 130 132 131
524 2 2 4 1 99 356 206
525 2 2 4 1 140 142 141
526 2 2 4 1 147 149 148
527 2 2 4 1 190 363 149
528 2 2 4 1 152 155 154
529 2 2 4 1 198 211 153
530 2 2 4 1 155 157 156
531 2 2 4 1 158 159 156
532 2 2 4 1 159 361 156
533 2 2 4 1 157 195 158
534 2 2 4 1 363 364 161
535 2 2 4 1 165 166 163
536 2 2 4 1 164 344 165
537 2 2 4 1 201 210 166
538 2 2 4 1 168 170 169
539 2 2 4 1 204 207 174
540 2 2 4 1 176 223 178
541 2 2 4 1 188 376 368
542 2 2 4 1 194 357 242
543 2 2 4 1 214 216 195
544 2 2 4 1 204 375 239
545 2 2 4 1 207 380 379
546 2 2 4 1 216 265 226
547 2 2 4 1 261 262 219
548 2 2 4 1 252 253 224
549 2 2 4 1 225 362 361
550 2 2 4 1 227 370 353
551 2 2 4 1 268 280 254
552 2 2 4 1 383 384 382
553 2 2 4 1 143 144 142
554 2 2 4 1 165 167 166
555 2 2 4 1 201 243 230
556 2 2 4 1 276 293 229
557 2 2 4 1 142 366 141
558 2 2 4 1 149 363 161
559 2 2 4 1 262 355 219
560 2 2 4 1 179 180 177
561 2 2 4 1 217 337 269
562 2 2 4 1 355 369 218
563 2 2 4 1 230 268 254
564 2 2 4 1 178 179 177
565 2 2 4 1 164 165 163
566 2 2 4 1 192 208 191
567 2 2 4 1 146 357 194
568 2 2 4 1 179 181 180
569 2 2 4 1 217 269 235
570 2 2 4 1 352 362 250
571 2 2 4 1 169 377 167
572 2 2 4 1 167 201 166
573 2 2 4 1 205 256 255
574 2 2 4 1 141 366 359
575 2 2 4 1 145 366 142
576 2 2 4 1 183 184 181
577 2 2 4 1 219 355 218
578 2 2 4 1 371 378 348
579 2 2 4 1 161 371 150
580 2 2 4 1 187 373 186
581 2 2 4 1 205 255 247
582 2 2 4 1 359 369 290
583 2 2 4 1 130 131 119
584 2 2 4 1 129 203 130
585 2 2 4 1 222 232 197
586 2 2 4 1 228 260 259
587 2 2 4 1 158 360 160
588 2 2 4 1 161 378 371
589 2 2 4 1 360 365 164
590 2 2 4 1 182 189 183
591 2 2 4 1 183 376 185
592 2 2 4 1 186 200 184
593 2 2 4 1 212 213 189
594 2 2 4 1 205 247 200
595 2 2 4 1 217 235 209
596 2 2 4 1 221 236 222
597 2 2 4 1 247 249 248
598 2 2 4 1 151 358 357
599 2 2 4 1 191 193 187
600 2 2 4 1 379 380 243
601 2 2 4 1 364 378 161
602 2 2 4 1 162 370 227
603 2 2 4 1 196 367 171
604 2 2 4 1 372 373 193
605 2 2 4 1 193 374 372
606 2 2 4 1 357 358 242
607 2 2 4 1 207 379 174
608 2 2 4 1 183 185 184
609 2 2 4 1 348 378 342
610 2 2 4 1 177 375 175
611 2 2 4 1 377 379 243
612 2 2 4 1 160 360 164
613 2 2 4 1 241 376 189
614 2 2 4 1 240 380 207
615 2 2 4 1 364 383 382
616 2 2 4 1 172 377 169
617 2 2 4 1 171 367 173
618 2 2 4 1 248 381 200
619 2 2 4 1 181 381 180
620 2 2 4 1 174 379 172
621 2 2 4 1 180 375 177
622 2 2 4 1 205 373 256
623 2 2 4 1 256 372 263
624 2 2 4 1 256 373 372
625 2 2 4 1 375 385 239
626 2 2 4 1 378 382 342
627 2 2 4 1 172 379 377
628 2 2 4 1 340 346 212
629 2 2 4 1 212 346 273
630 2 2 4 1 364 382 378
631 2 2 4 1 221 222 197
632 2 2 4 1 129 130 119
633 2 2 4 1 368 376 241
634 2 2 4 1 239 387 270
635 2 2 4 1 248 387 385
636 2 2 4 1 248 385 381
637 2 2 4 1 249 387 248
638 2 2 4 1 385 387 239
639 2 2 4 1 180 385 375
640 2 2 4 1 230 386 268
641 2 2 4 1 380 386 243
642 2 2 4 1 243 386 230
643 2 2 4 1 381 385 180
644 2 2 4 1 115 129 119
645 2 2 4 1 118 221 197
646 2 2 4 1 119 336 118
647 2 2 4 1 387 388 270
648 2 2 4 1 249 388 387
649 2 2 4 1 118 197 2
650 2 2 4 1 115 119 118
651 2 2 4 1 220 395 18
652 2 2 4 1 52 389 121
653 2 2 4 1 315 389 114
654 2 2 4 1 69 390 68
655 2 2 4 1 50 231 49
656 2 2 4 1 70 107 69
657 2 2 4 1 74 391 73
658 2 2 4 1 73 122 72
659 2 2 4 1 75 108 74
660 2 2 4 1 52 121 51
661 2 2 4 1 34 104 33
662 2 2 4 1 68 392 67
663 2 2 4 1 25 105 24
664 2 2 4 1 28 106 27
665 2 2 4 1 31 103 30
666 2 2 4 1 23 123 22
667 2 2 4 1 115 118 2
668 2 2 4 1 220 396 395
669 2 2 4 1 18 395 17
670 2 2 4 1 115 334 129
671 2 2 4 1 107 390 69
672 2 2 4 1 73 391 122
673 2 2 4 1 108 391 74
674 2 2 4 1 16 334 115
675 2 2 4 1 11 125 10
676 2 2 4 1 10 393 9
677 2 2 4 1 17 334 16
678 2 2 4 1 9 124 8
679 2 2 4 1 245 396 279
680 2 2 4 1 67 102 66
681 2 2 4 1 390 392 68
682 2 2 4 1 334 395 244
683 2 2 4 1 64 101 63
684 2 2 4 1 65 394 64
685 2 2 4 1 17 395 334
686 2 2 4 1 67 392 102
687 2 2 4 1 395 396 244
688 2 2 4 1 125 393 10
689 2 2 4 1 9 393 124
690 2 2 4 1 244 396 245
691 2 2 4 1 64 394 101
692 2 2 4 1 396 397 279
693 2 2 4 1 220 397 396
694 2 2 4 1 77 398 76
695 2 2 4 1 190 431 288
696 2 2 4 1 405 464 136
697 2 2 4 1 208 467 316
698 2 2 4 1 109 398 77
699 2 2 4 1 112 441 325
700 2 2 4 1 355 470 423
701 2 2 4 1 272 464 231
702 2 2 4 1 79 399 78
703 2 2 4 1 345 401 202
704 2 2 4 1 284 408 282
705 2 2 4 1 282 408 278
706 2 2 4 1 321 401 318
707 2 2 4 1 345 465 401
708 2 2 4 1 15 402 14
709 2 2 4 1 48 405 47
710 2 2 4 1 57 403 56
711 2 2 4 1 98 406 97
712 2 2 4 1 8 404 7
713 2 2 4 1 288 457 190
714 2 2 4 1 394 440 388
715 2 2 4 1 78 399 109
716 2 2 4 1 411 415 302
717 2 2 4 1 63 407 62
718 2 2 4 1 134 417 412
719 2 2 4 1 314 452 316
720 2 2 4 1 190 457 363
721 2 2 4 1 332 400 331
722 2 2 4 1 299 400 332
723 2 2 4 1 423 470 110
724 2 2 4 1 338 408 350
725 2 2 4 1 313 410 314
726 2 2 4 1 280 446 71
727 2 2 4 1 12 411 11
728 2 2 4 1 297 412 299
729 2 2 4 1 134 415 13
730 2 2 4 1 298 416 302
731 2 2 4 1 320 418 324
732 2 2 4 1 33 419 32
733 2 2 4 1 32 420 31
734 2 2 4 1 79 434 399
735 2 2 4 1 374 452 310
736 2 2 4 1 123 450 281
737 2 2 4 1 363 422 364
738 2 2 4 1 290 423 291
739 2 2 4 1 355 423 369
740 2 2 4 1 318 401 320
741 2 2 4 1 238 425 240
742 2 2 4 1 384 447 29
743 2 2 4 1 401 465 320
744 2 2 4 1 14 402 134
745 2 2 4 1 47 405 136
746 2 2 4 1 56 403 135
747 2 2 4 1 206 406 98
748 2 2 4 1 124 404 8
749 2 2 4 1 337 427 269
750 2 2 4 1 105 421 283
751 2 2 4 1 236 428 237
752 2 2 4 1 62 429 61
753 2 2 4 1 269 430 235
754 2 2 4 1 147 431 190
755 2 2 4 1 143 431 144
756 2 2 4 1 350 433 143
757 2 2 4 1 240 432 380
758 2 2 4 1 398 438 76
759 2 2 4 1 101 407 63
760 2 2 4 1 399 434 262
761 2 2 4 1 110 434 80
762 2 2 4 1 111 426 323
763 2 2 4 1 323 435 319
764 2 2 4 1 342 436 341
765 2 2 4 1 384 436 382
766 2 2 4 1 353 437 264
767 2 2 4 1 280 437 254
768 2 2 4 1 75 438 108
769 2 2 4 1 260 438 398
770 2 2 4 1 424 473 352
771 2 2 4 1 102 440 66
772 2 2 4 1 65 440 394
773 2 2 4 1 253 441 346
774 2 2 4 1 128 442 85
775 2 2 4 1 84 442 116
776 2 2 4 1 123 443 22
777 2 2 4 1 255 444 247
778 2 2 4 1 213 445 251
779 2 2 4 1 70 446 107
780 2 2 4 1 28 447 106
781 2 2 4 1 374 439 372
782 2 2 4 1 354 449 261
783 2 2 4 1 105 450 24
784 2 2 4 1 23 450 123
785 2 2 4 1 196 435 343
786 2 2 4 1 278 408 338
787 2 2 4 1 356 409 206
788 2 2 4 1 135 410 313
789 2 2 4 1 26 421 25
790 2 2 4 1 27 453 26
791 2 2 4 1 272 455 258
792 2 2 4 1 193 456 374
793 2 2 4 1 208 456 191
794 2 2 4 1 50 454 231
795 2 2 4 1 121 454 51
796 2 2 4 1 3 458 19
797 2 2 4 1 20 458 3
798 2 2 4 1 7 459 1
799 2 2 4 1 6 460 96
800 2 2 4 1 97 460 6
801 2 2 4 1 58 461 5
802 2 2 4 1 5 461 57
803 2 2 4 1 2 462 15
804 2 2 4 1 197 462 2
805 2 2 4 1 1 459 100
806 2 2 4 1 49 463 4
807 2 2 4 1 4 463 48
808 2 2 4 1 220 458 397
809 2 2 4 1 107 432 390
810 2 2 4 1 250 424 352
811 2 2 4 1 389 466 121
812 2 2 4 1 170 468 196
813 2 2 4 1 285 457 288
814 2 2 4 1 289 451 116
815 2 2 4 1 108 473 424
816 2 2 4 1 302 416 411
817 2 2 4 1 412 415 134
818 2 2 4 1 11 411 125
819 2 2 4 1 302 412 297
820 2 2 4 1 25 421 105
821 2 2 4 1 264 424 250
822 2 2 4 1 136 430 292
823 2 2 4 1 125 416 414
824 2 2 4 1 393 414 413
825 2 2 4 1 125 414 393
826 2 2 4 1 393 413 124
827 2 2 4 1 312 413 304
828 2 2 4 1 304 414 301
829 2 2 4 1 413 414 304
830 2 2 4 1 414 416 301
831 2 2 4 1 13 415 12
832 2 2 4 1 301 416 298
833 2 2 4 1 324 418 104
834 2 2 4 1 329 428 128
835 2 2 4 1 222 448 232
836 2 2 4 1 104 419 33
837 2 2 4 1 268 446 280
838 2 2 4 1 113 427 328
839 2 2 4 1 31 420 103
840 2 2 4 1 283 421 286
841 2 2 4 1 392 425 102
842 2 2 4 1 326 426 111
843 2 2 4 1 299 417 400
844 2 2 4 1 263 439 309
845 2 2 4 1 383 447 384
846 2 2 4 1 364 422 383
847 2 2 4 1 369 423 290
848 2 2 4 1 408 433 350
849 2 2 4 1 108 424 391
850 2 2 4 1 116 451 83
851 2 2 4 1 270 425 238
852 2 2 4 1 252 426 253
853 2 2 4 1 402 417 134
854 2 2 4 1 321 468 401
855 2 2 4 1 251 427 337
856 2 2 4 1 331 448 237
857 2 2 4 1 306 472 312
858 2 2 4 1 310 471 308
859 2 2 4 1 293 428 236
860 2 2 4 1 124 469 404
861 2 2 4 1 403 471 135
862 2 2 4 1 206 472 406
863 2 2 4 1 61 429 117
864 2 2 4 1 235 430 271
865 2 2 4 1 21 443 397
866 2 2 4 1 144 431 147
867 2 2 4 1 82 451 291
868 2 2 4 1 380 432 386
869 2 2 4 1 411 416 125
870 2 2 4 1 302 415 412
871 2 2 4 1 288 433 284
872 2 2 4 1 80 434 79
873 2 2 4 1 237 448 222
874 2 2 4 1 319 435 321
875 2 2 4 1 83 451 82
876 2 2 4 1 382 436 342
877 2 2 4 1 271 464 272
878 2 2 4 1 121 466 455
879 2 2 4 1 401 468 202
880 2 2 4 1 254 437 353
881 2 2 4 1 76 438 75
882 2 2 4 1 372 439 263
883 2 2 4 1 284 433 408
884 2 2 4 1 309 439 310
885 2 2 4 1 66 440 65
886 2 2 4 1 346 441 273
887 2 2 4 1 85 442 84
888 2 2 4 1 22 443 21
889 2 2 4 1 397 443 279
890 2 2 4 1 312 472 409
891 2 2 4 1 410 471 310
892 2 2 4 1 247 444 249
893 2 2 4 1 273 445 213
894 2 2 4 1 71 446 70
895 2 2 4 1 29 447 28
896 2 2 4 1 259 449 354
897 2 2 4 1 24 450 23
898 2 2 4 1 410 452 314
899 2 2 4 1 291 451 289
900 2 2 4 1 106 453 27
901 2 2 4 1 400 448 331
902 2 2 4 1 48 463 405
903 2 2 4 1 15 462 402
904 2 2 4 1 57 461 403
905 2 2 4 1 406 460 97
906 2 2 4 1 404 459 7
907 2 2 4 1 258 455 347
908 2 2 4 1 51 454 50
909 2 2 4 1 191 456 193
910 2 2 4 1 287 457 285
911 2 2 4 1 438 473 108
912 2 2 4 1 233 461 58
913 2 2 4 1 96 460 234
914 2 2 4 1 19 458 220
915 2 2 4 1 232 462 197
916 2 2 4 1 100 459 356
917 2 2 4 1 231 463 49
918 2 2 4 1 110 470 434
919 2 2 4 1 320 465 418
920 2 2 4 1 310 452 410
921 2 2 4 1 316 467 315
922 2 2 4 1 266 465 345
923 2 2 4 1 347 467 208
924 2 2 4 1 315 466 389
925 2 2 4 1 202 468 170
926 2 2 4 1 262 470 355
927 2 2 4 1 352 473 260
928 2 2 4 1 402 462 232
929 2 2 4 1 405 463 231
930 2 2 4 1 403 461 233
931 2 2 4 1 234 460 406
932 2 2 4 1 356 459 404
933 2 2 4 1 466 467 347
934 2 2 4 1 315 467 466
935 2 2 4 1 409 469 312
936 2 2 4 1 312 469 413
937 2 2 4 1 231 464 405
938 2 2 4 1 418 465 266
939 2 2 4 1 409 472 206
940 2 2 4 1 135 471 410
941 2 2 4 1 413 469 124
942 2 2 4 1 260 473 438
943 2 2 4 1 434 470 262
944 2 2 4 1 455 466 347
$EndElements
